<?xml version='1.0' encoding='utf-8'?>
<svg xmlns="http://www.w3.org/2000/svg" viewBox="0 0 755.95 485.74"> <g transform="translate(-897.5 -153.15)" stroke="#000"> <path d="m933 315.86s-31.648-97.147 8.0378-153.66c31.207-44.436 80.825 98.198 72.248 110.14-9.5114 13.245-80.286 43.515-80.286 43.515z"/> <path d="m1115.4 276.65s-0.1268-74.254 75.991-108.59c50.618-22.837 30.485 122.03-26.108 155.51-5.3509 3.165-49.884-46.911-49.884-46.911z"/> </g> <g transform="translate(-897.5 -153.15)"> <path d="m1438.2 358.46c0.2655 0.55936 56.548-33.092 88.149-59.378 32.797-27.281 43.447-39.32 80.19-73.504 26.88-25.008 5.2698 32.582-26.751 75.553-35.405 47.513-62.882 79.675-112.76 103.26-26.343 12.459-28.831-45.934-28.831-45.934z" stroke="#000" stroke-width="1.092"/> </g> <g transform="translate(-897.5 -153.15)" stroke="#000"> <path d="m1168 360.61s51.51-48.43 134.83-44.62 126.64 5.1357 162.54 54.808c10.932 13.154 28.501 71.494-13.1 109.51-39.824 36.389-65.468 72.7-112.35 71.651-54.748-1.2254-143.7-24.822-172.2-41.776s-46.386-70.353-46.908-75.544 47.184-74.026 47.184-74.026z" fill="#fff" stroke-width="4"/> <path d="m1247.1 321.68c-11.632 2.6789-6.402 2.3966-3.7992 12.531 2.8804 11.215 20.02 28.851 35.016 36.102s33.125 10.582 51.741 4.7566 37.719-20.809 54.664-50.188c1.1868-2.0577-6.956-2.0048-19.5-3.9727-12.712-1.9941-28.2-2.9164-46.174-3.7899-16.803-0.81661-34.898 0.3001-48.17 0.64295s-23.776 3.9177-23.776 3.9177z"/> </g> <g transform="translate(-897.5 -153.15)"> <path d="m959.07 458.36s-33.169-70.606-33.747-103.79c-0.52697-30.302 3.3089-58.88 16.935-72.038 8.132-7.8527 37.019-25.516 106.33-26.755 65.081-1.1637 108.91 12.535 123.82 51.44 0 0 19.84 72.041-26.016 124.94-11.106 12.812-0.8896 100.42-14.45 124.97s-39.76 54.366-86.667 45.448-70.408-46.359-70.408-46.359 4.9699 12.784 0 0-18.99-54.256-15.8-97.854z" fill="#fff" stroke="#000" stroke-width="4"/> <path d="m1142.5 450.94s-3.7121-23.276-9.8786-26.866 10.646 98.13-20.125 143.33-122.65 6.4058-122.65 6.4058" fill="none" stroke="#000" stroke-width="4"/> <path d="m1134.5 430.97c-3.2173 2.3459-1.4076 7.4954-2.1393 10.893-0.4051 31.257 1.569 63.011-6.0467 93.578-4.1013 18.062-12.049 37.675-29.336 46.869-18.146 9.2623-39.473 8.1717-59.1 5.6993-10.588-1.2258-20.683-5.0866-31.168-6.8154-3.4725 0.74409-0.8714 4.8287 1.2947 5.5134 14.855 9.3078 31.948 15.643 49.576 16.362 13.652 0.6208 27.554-1.9246 39.263-9.1964 15.926-9.5837 28.476-24.509 35.96-41.451 6.5269-19.341 5.4347-40.139 6.4232-60.267 0.076-15.243 1.6784-30.488 1.2777-45.715-1.0035-5.0922-1.562-10.781-4.442-15.156-0.4464-0.33933-1.0236-0.3888-1.5625-0.3125z" fill="#f00" opacity=".67699"/> <path d="m1012.5 533.91s30.354 15.877 53.32 1.0492c5.6448-3.6447 10.584 55.83-26.813 50.225s-29.605-37.689-26.506-51.274z" stroke="#000"/> <path d="m1000.2 540.31s-59.517 8.6975-100.75 39.65" fill="none" stroke="#000" stroke-width="4"/> <path d="m993.74 527.42s-34.36-8.6147-81.789 16.042" fill="none" stroke="#000" stroke-width="4"/> <path d="m992.42 510s-42.091-12.149-84.305 1.0768" fill="none" stroke="#000" stroke-width="4"/> <path d="m1081.5 503.84s57.707-13.143 74.549 11.238" fill="none" stroke="#000" stroke-width="4"/> <path d="m1078.1 522.17c3.7428-1.4082 58.596 4.5282 80.348 29.406" fill="none" stroke="#000" stroke-width="4"/> <path d="m1074.4 536.89c4.1723-0.69028 77.709 20.515 89.275 41.5" fill="none" stroke="#000" stroke-width="4"/> <path d="m981.75 443.4s12.548-12.922 20.8-15.517" fill="none" stroke="#000" stroke-width="2.6"/> <path d="m981.99 456.21s23.715-26.893 35.833-32.001" fill="none" stroke="#000" stroke-width="2.6"/> <path d="m961.53 332.12s8.5287-38.159 40.895-43.543 49.871 2.1944 56.848 9.2221c0 0 30.525-13.005 54.301-1.3806s46.171 29.82 44.576 52.931" fill="none" stroke="#000" stroke-width="4"/> </g> <g transform="translate(-897.5 -153.15)" stroke="#000"> <path transform="translate(-372.87 114.06)" d="m1420.3 270.3s-2.4046 11.205-27.626 11.348c-40.261 0.2283-49.899-16.709-49.899-47.436s21.362-49.176 51.157-49.176c29.662 0 29.77 4.7333 38.178 15.664" fill="#fff" stroke-width="4"/> <path transform="translate(-247.52 89.571)" d="m1387.7 271.28c-6.8413 21.577-27.235 41.154-56.97 41.154s-43.339-20.71-43.41-49.935c-0.089-36.692 29.328-55.503 63.075-41.955 26.149 10.498 35.534 22.573 37.908 39.976 0.8519 4.0904-0.047 7.7967-0.6029 10.759z" fill="#fff" stroke-linecap="round" stroke-width="4"/> <path d="m1022.3 371.32a10.906 10.547 0 1 1-2e-4 -0.0664" stroke-linecap="round" stroke-width="4"/> <path d="m1089.9 375.34a13.238 11.859 0 1 1-2e-4 -0.0747" stroke-linecap="round" stroke-width="4"/> <path d="m1553.7 246.85c24.888-29.057 18.732-46.699 18.732-46.699" fill="none" stroke-width="3.3"/> <path d="m1530.8 244.63s15.715-19.29 9.4085-35.799" fill="none" stroke-width="3.3"/> <path d="m1614.9 309.3s15.861-24.619 32.04-20.598" fill="none" stroke-width="3.3"/> <path d="m1611.7 330.66c26.186-16.429 36.277-13.352 40.117-9.5071" fill="none" stroke-width="3.3"/> <path transform="translate(897.5 153.15)" d="m232.72435,192.59326c.35516,2.09363.7135,4.18666 1.05228,6.28301 .25075,1.57407.47945,3.15158.66957,4.73413 .11277.84393.0773,1.69253-.002,2.5367-.0328.32447-.0723.64818-.11356.97166-.0136.10703-.0275.21402-.0417.32096 .021.0528-.0422.0637-.058.0875-.0498.37207-1.80376.13745-1.75398-.23462-.009-.0268-.0669-.0533-.0331-.0985l.0416-.31258c.0386-.30289.0776-.60576.10764-.90967 .0679-.71364.1066-1.43088.0126-2.14499-.17903-1.55746-.37609-3.11313-.62358-4.66138-.33652-2.09487-.69296-4.18639-1.04849-6.2781-.0624-.37993 1.72862-.67402 1.79101-.29409z" stroke-linecap="round" stroke-width="3.3"/> <path transform="translate(897.5 153.15)" d="m94.999 166.45c-1.2195 1.5569-2.4586 3.0983-3.7135 4.6267-0.39607 0.21364-1.0692 1.7727-1.5504 1.669-0.14866 0.27853-1.4617-0.42225-1.313-0.70078 0.0097-0.84875 1.0227-1.4652 1.4228-2.1484 1.2409-1.5183 2.4726-3.044 3.6838-4.5862 0.24175-0.31193 1.7122 0.8277 1.4704 1.1396z" stroke-linecap="round" stroke-width="3.3"/> <path transform="translate(897.5 153.15)" d="m154.34057,126.30613c1.38163,1.10588 2.8175,2.14086 4.26023,3.16481 .86783.6215 1.74644,1.22766 2.61908,1.84233 .31854.23696.66118.44362.95725.70942 .26979.30645.008.33028-.28402.82706 .0337.0241-.08.18302-.11371.1589-.37483.43626-.31365.69193-.69036.53638-.34439-.19214-.64858-.44658-.97509-.66635-.87265-.61838-1.75376-1.22479-2.62095-1.85091-1.46999-1.04866-2.93038-2.11184-4.33693-3.24504-.31323-.25127.87127-1.72787 1.1845-1.4766z" stroke-linecap="round" stroke-width="3.3"/> <path transform="translate(897.5 153.15)" d="m176.43 130.06c-1.5155 1.468-3.1141 2.8461-4.7324 4.1987-0.80533 0.66936-1.5884 1.3601-2.5041 1.8723-0.25919 0.21221-1.2596-1.0096-1.0004-1.2218 0.67816-0.79226 1.5036-1.4216 2.3039-2.0871 1.5831-1.3228 3.1447-2.6722 4.6354-4.0993 0.28368-0.27526 1.5813 1.062 1.2976 1.3373z" stroke-linecap="round" stroke-width="3.3"/> <path transform="translate(897.5 153.15)" d="m189.0099,409.816c-.76064,2.09453-1.55047,4.17769-2.39046,6.24167-.49587.67763-.50646,1.91775-1.16248,2.49532-.23764.20923-.57625.26253-.86438.3938-.0165.0387-.19892-.0393-.18238-.078-.10653-.29347-.301-.56876-.31959-.88041-.0517-.86743.79645-1.74013.89529-2.57714 .7948-2.06757 1.56595-4.14364 2.31182-6.22939 .13452-.36321 1.8467.27092 1.71218.63413z" stroke-linecap="round" stroke-width="3.3"/> <path transform="translate(897.5 153.15)" d="m196.76 409.63c-0.82225 2.4692-1.6574 4.9342-2.5094 7.3933-0.53744 1.5614-0.93093 3.0924-2.0612 4.3169-0.048 0.13693-0.69346-0.0892-0.64549-0.22614-0.11971-1.6565 0.52359-3.0965 1.0534-4.6548 0.82617-2.4596 1.66-4.9168 2.4626-7.3842 0.11774-0.36064 1.8178 0.19436 1.7001 0.55499z" stroke-linecap="round" stroke-width="3.3"/> <path transform="translate(897.5 153.15)" d="m182.86 413.03c2.2958-0.33896 4.5611-0.84823 6.825-1.3519 2.1582-0.48426 4.32-0.95199 6.4958-1.3506 1.2958-0.21317 2.596-0.41297 3.9086-0.47965l0.43567 0.081c0.26468-0.033 0.42019 1.2147 0.15551 1.2477l-0.39989 0.18511c-1.2557 0.25624-2.53 0.40843-3.786 0.66423-2.1542 0.40168-4.2961 0.86394-6.4342 1.3431-2.2995 0.50972-4.6029 1.0076-6.936 1.3418-0.35655 0.0561-0.62107-1.6247-0.26452-1.6808z" stroke-linecap="round" stroke-width="3.3"/> <path transform="translate(897.5 153.15)" d="m190.89627,407.10846c-.66746,1.23661-1.46685,2.04849-2.56315,2.911-.049.0819-.43521-.14911-.3862-.23103 .25819-1.4279.60542-2.51832 1.5083-3.67962 .21206-.30569 1.6531.69396 1.44105.99965z" stroke-linecap="round" stroke-width="3.3"/> <path transform="translate(897.5 153.15)" d="m196.52597,406.73042-.38272.85688c-.1214.32498-1.65338-.24731-1.53197-.57229l.28055-.91864c.1345-.34665 1.76864.2874 1.63414.63405z" stroke-linecap="round" stroke-width="3.3"/> <path transform="translate(897.5 153.15)" d="m448.27708,290.87855c-1.25331,1.38251-2.34883,2.89163-3.35288,4.46139-.79905,1.25801-1.48817,2.57794-2.09652,3.93704-.55253,1.22482-.96218,2.50427-1.36684,3.78317-.37702,1.16622-.73394,2.33814-1.06076,3.5194-.31891,1.15507-.65136,2.30628-.96663,3.46235-.27148.98282-.53883,1.9664-.7625,2.96129-.22551.99886-.40187,2.00689-.54024,3.0212-.15765,1.15438-.27249,2.31374-.36487,3.47497-.0699.93068-.12773,1.86223-.17244,2.79446-.036.78322-.0534,1.56709-.0693,2.35093-.0128.82831-.0172,1.6567-.0227,2.48509-.002.63511-.007,1.27022-.008,1.90534 .0107.34246-.0128.68296-.0435,1.02365-.0296.26907-.0405.4664-.28451.60613-.00027.25395-1.19739.25267-1.19712-.001-.24396-.14045-.25424-.33825-.28304-.60767-.0296-.34195-.0516-.68371-.0384-1.02728 .004-.63634.003-1.27269.008-1.90902 .004-.83669.009-1.67342.025-2.50998 .0142-.80169.0372-1.60323.0731-2.40427 .0458-.95261.10676-1.90443.17836-2.85546 .0994-1.19477.21948-2.38776.38186-3.57581 .14795-1.06583.32969-2.12606.57023-3.17533 .23224-1.02093.50779-2.03042.78804-3.03913 .31787-1.15771.65191-2.3108.97888-3.46595 .33453-1.201.6965-2.39348 1.08161-3.57928 .42392-1.34668.8601-2.69145 1.441-3.98068 .64822-1.43894 1.37813-2.83772 2.22782-4.16943 1.05916-1.65233 2.21363-3.24249 3.53385-4.69842 .25723-.28479 1.59975.92779 1.34252,1.21258z" stroke-linecap="round" stroke-width="3.3"/> <path transform="translate(897.5 153.15)" d="m284.83434,208.09623c2.33503.97944 4.48807,2.30722 6.55305,3.75958 2.35564,1.64076 4.20915,3.77627 5.78522,6.14987 1.49819,2.42798 2.56325,5.08174 3.57006,7.74079 .62984,1.68875 1.21354,3.39422 1.77658,5.10624 .2815.85639.56667,1.71157.83949,2.57077 .12267.39182.23177.7878.33167,1.186 .0403.15414.0753.30962.11156.46475l.003.017 .002.005c.15606.36635-1.57093,1.102-1.72698.73566l-.0115-.0272c-.0382-.10256-.0788-.20454-.0971-.31321-.0317-.13997-.064-.27982-.0976-.41937-.0938-.36238-.18578-.72544-.29994-1.08214-.2708-.85309-.55481-1.70192-.83355-2.55243-.55438-1.68591-1.12819-3.36559-1.74812-5.02868-.95738-2.53008-1.96318-5.05754-3.37796-7.37388-1.43725-2.1873-3.13775-4.14785-5.29951-5.65771-1.95312-1.3793-3.98807-2.64461-6.19682-3.57898-.36107-.15189.35493-1.85398.716-1.7021z" stroke-linecap="round" stroke-width="3.3"/> <path transform="translate(897.5 153.15)" d="m285.57915,224.86101c1.71562,1.92448 3.1723,4.05569 4.561,6.22189 1.49765,2.34942 2.71891,4.85128 3.75971,7.43121 .72891,1.86245 1.24128,3.79645 1.69294,5.74144 .20295.89627.38735,1.79656.57226,2.69667 .0626.30902.12808.6175.18052.92828 .009.25646.006-.0491-.0156.12768 .0799.37022-1.66532.74686-1.74521.37664-.0236-.0472-.0648-.0856-.0709-.14153-.0696-.30507-.12649-.61295-.1879-.91989-.17514-.8837-.35761-1.766-.55596-2.64481-.4295-1.85172-.91545-3.69328-1.60295-5.46866-.98918-2.47539-2.15854-4.87285-3.59119-7.1255-1.33185-2.08295-2.7315-4.1277-4.35892-5.99433-.26073-.28896 1.10145-1.51805 1.36218-1.22909z" stroke-linecap="round" stroke-width="3.3"/> </g> <g transform="translate(-897.5 -153.15)" stroke="#000" stroke-width="4"> <path d="m1371.7 432.2s-27.212 7.814-26.2 42.19-5.4301 50.197 50.436 80.376 9.8479 38.407 0.8284 43.267-24.359 13.971-16.935 25.651 11.504 15.573 19.144 11.845 64.855-28.688 68.782-34.293 0.6749-113.7-34.575-160.64" fill="#fff"/> <path d="m1392.3857,611.06178c-.8306.7445-1.6364,1.51539-2.4288,2.30018-.525.51138-1.0075,1.06225-1.4719,1.62847-.3043.35998-.5405.76761-.775,1.17435-.2374.3912-.417.81144-.5882,1.23449-.1553.38271-.272.77879-.3875,1.1748-.1074.39751-.2252.79158-.367,1.17821-.1077.2916-.1977.58898-.31.8789-.1013.26974-.208.53706-.3316.79742l-.2718.56734c-.065.16726-.1439.32718-.2363.48122-.1264.21039-.2631.41432-.3954.62104-.1358.22381-.2661.45111-.3887.68248-.088.17119-.1554.35149-.216.53376-.08.25644-.133.52027-.1995.78033-.041.15375-.09.30534-.1477.45336-.01.0613-.04.10787-.065.15746-.047.24021-1.1799.0164-1.1324-.2238 0-.0562-.017-.1126.0004-.17246 0-.16527.019-.33035.046-.49363 .056-.31466.1354-.62527.2287-.93087 .086-.25028.1801-.49797.3021-.73326 .1406-.26391.2879-.52444.4445-.77917 .1269-.19602.2557-.39083.3771-.59029 .072-.1169.1209-.24364.1756-.36951l.2693-.56069c.1101-.22937.2005-.46683.2921-.70404 .1093-.28299.1951-.57404.3021-.85791 .132-.35756.2386-.72314.3389-1.09075 .1282-.43919.2608-.87735.4331-1.30173 .1946-.48017.4029-.95518.6705-1.40013 .2711-.46979.5504-.93652.901-1.35274 .4938-.60179 1.0082-1.18625 1.5658-1.73037 .8071-.79714 1.6277-1.58035 2.4729-2.33724 .2089-.18945 1.102.79533.8931.98478z" stroke-linecap="round"/> <path d="m1397.9835,618.77933c-1.1102.56642-2.1283,1.28169-3.0928,2.0664-.7963.66349-1.4984,1.42603-2.1729,2.20992-.4411.49969-.8201,1.04639-1.1599,1.61839-.2679.46961-.4934.96154-.7304,1.44704-.2261.44861-.4352.90536-.6404,1.36382-.1665.37287-.3014.75863-.447,1.13991-.11.28159-.21.5669-.3213.84796-.088.22356-.1647.45112-.2481.67636-.071.21326-.1403.42589-.235.62996-.1033.19177-.2073.38289-.3028.57867-.058.13353-.1114.26379-.2017.37852-.1153.24303-1.2609-.30054-1.1456-.54356 .04-.14202.083-.28431.1593-.41589 .094-.19297.1939-.38337.299-.57087 .077-.16768.1266-.34557.1906-.51873 .088-.23289.1658-.46936.2588-.70032 .1094-.27584.2072-.55603.3159-.83218 .1542-.40366.298-.81167.4752-1.20608 .2098-.47246.4264-.94196.659-1.40373 .2518-.5193.4952-1.04381.7842-1.5439 .3799-.63676.8033-1.24545 1.2943-1.8027 .7257-.84263 1.4822-1.66133 2.3403-2.37258 1.035-.83944 2.1261-1.60683 3.3166-2.21306 .2475-.12829.8522,1.03837.6047,1.16665z" stroke-linecap="round"/> <path d="m1396.8 558.3c-28.255 14.441-26.66 19.797-26.66 19.797s-4.8473 16.594 10.738 17.754 38.532-24.712 38.532-24.712" fill="none"/> <path d="m1382.5635,577.73284c-.9888.46225-1.951.97892-2.9029,1.51233-.6184.34879-1.211.74089-1.773,1.17453-.3284.26371-.6358.5529-.9379.84606-.1723.17636-.3448.35333-.5058.5401-.1453.19186-.2824.39004-.4201.58737-.1605.25058-.3429.48549-.5273.71866-.2.25555-.3978.51284-.5945.77101-.1696.23715-.3608.45699-.5496.67867-.1453.18462-.3034.35814-.4587.53421-.1017.10854-.1813.23338-.2584.35981-.1484.26844-.329.51683-.4972.77281-.1516.23318-.2925.47262-.4233.71805-.082.16444-.1802.31947-.2804.47312-.071.0994-.1545.18729-.2295.28255-.079.10812-.1526.21947-.2259.33123l-.102.15537c0,.0226-.029.023-.041.0323-.1516.23446-1.2569-.48016-1.1053-.71462 0-.015-.01-.0395.013-.0518l.1061-.16431c.088-.13276.1767-.26548.2709-.39419 .053-.0695.1424-.18468.1882-.22507 .077-.11664.1526-.2347.2141-.36082 .151-.2825.3131-.55852.4882-.82692 .16-.24079.3292-.4761.4702-.72898 .1189-.1961.2464-.38708.402-.55654 .1495-.167.2991-.33367.4382-.50954 .172-.20399.3486-.40428.5039-.62167 .2011-.2664.406-.52988.611-.79334 .1679-.21218.3344-.42556.48-.65405 .1649-.23561.3267-.47415.5073-.69804 .1882-.2161.3854-.42445.5876-.62742 .3395-.32622.6813-.65152 1.051-.94372 .614-.47368 1.2605-.90349 1.9375-1.28247 .9823-.55199 1.9764-1.08443 2.9976-1.56148 .2603-.12008.8263,1.10673.5661,1.22681z" stroke-linecap="round"/> <path d="m1390.0821,584.40106c-1.0473.41782-2.0728.88606-3.0825,1.38715-.6289.30764-1.2337.65738-1.8061,1.06011-.3687.26023-.7187.54407-1.0564.84303-.2469.20534-.4757.42717-.6864.66923-.2627.29676-.5088.60684-.7472.92326-.2313.30012-.4367.6186-.6519.93007-.2532.34673-.4764.71332-.7003,1.07922-.1811.29274-.3635.58462-.5422.87877-.07.12253-.1485.23956-.2299.35463-.053.078-.053.0716-.1413.0657-.1228.20581-1.093-.37313-.9702-.57895-.047-.0749-.052-.0723-.01-.1565 .064-.12896.1324-.25606.2103-.37755 .1795-.29527.3626-.58826.5449-.88179 .2369-.38709.4734-.77485.7411-1.14177 .2257-.32614.4409-.65985.6836-.97401 .2585-.3428.5257-.67857.81-1.00045 .2506-.28362.5176-.54893.81-.78988 .3763-.32787.7633-.64243 1.1716-.93004 .6281-.43988 1.2894-.82622 1.9797-1.16091 1.0448-.51813 2.1069-1.00063 3.1904-1.43255 .2616-.10213.743,1.13109.4814,1.23321z" stroke-linecap="round"/> <path d="m1203.4 456.11s-28.347 66.736-22.457 78.692-4.7245 13.971 44.453 32.609 40.465 14.91 40.465 14.91-13.284 9.443-20.187 18.223-3.6201 22.117 10.952 25.099 36.722-26.479 42.244-36.447-6.8562-26.442-28.316-38.683c-13.625-7.7721-52.557-11.478-47.644-26.231 7.0175-21.072 11.602-21.404 16.106-25.347" fill="#fff"/> <path d="m1255.4272,603.84935c-1.0899.73189-2.0621,1.61329-2.9868,2.54038-.8205.84895-1.5787,1.75542-2.3107,2.68094-.5836.75843-1.1404,1.53731-1.677,2.32962-.3879.58204-.7368,1.1887-1.0562,1.81066-.2505.49495-.478,1.00106-.7031,1.50792-.1811.43172-.3759.857-.5812,1.27763-.1402.29114-.2835.58091-.4184.87462-.061.13643-.115.2752-.1867.40606l-.024.0339c-.1054.25632-1.3137-.24031-1.2083-.49664 0-.0144 0-.0288.01-.0432 .048-.15986.116-.312.1847-.46427 .1394-.30318.2859-.6031.4319-.90315 .1982-.406.3858-.81664.5605-1.23339 .2355-.53033.4745-1.05945.737-1.5771 .345-.66976.7224-1.32249 1.1397-1.95003 .5556-.8199 1.1327-1.62555 1.7381-2.40951 .7655-.96461 1.5569-1.91051 2.4139-2.79582 .9877-.988 2.0277-1.92595 3.1903-2.70683 .2372-.15901.9868.9592.7496,1.11821z" stroke-linecap="round"/> <path d="m1261.8613,610.29038c-.8582,1.20911-1.6306,2.47457-2.3756,3.75547-.6157,1.06335-1.188,2.1506-1.7449,3.24559-.4386.85765-.8745,1.71667-1.3192,2.57115-.3578.66431-.6829,1.34504-1.0042,2.02746-.2305.46681-.4394.94316-.6421,1.4225-.1035.22639-.1721.47065-.3167.67528-.1037.24801-1.2729-.24118-1.1691-.48919 .044-.24751.171-.46858.2605-.70183 .2083-.49702.4279-.98882.664-1.47334 .3288-.6984.6626-1.39457 1.0277-2.07496 .443-.85105.877-1.70666 1.3139-2.56087 .5695-1.11605 1.152-2.22558 1.7807-3.30974 .7639-1.31561 1.5591-2.61332 2.439-3.85543 .1629-.23039 1.2489.53752 1.086.76791z" stroke-linecap="round"/> <path d="m1166.8 509.13s-5.8596 21.509-1.2885 37.938 5.7983 34.956 8.498 37.883-22.978 9.802-24.758 21.481 4.4177 25.844 19.818 22.862 36.508-23.055 37.09-28.633-0.1227-38.573-3.4666-42.356" fill="none"/> <path d="m1164.3438,607.49125c-1.1793.41867-2.3558.84446-3.5031,1.34485-.9332.41318-1.8055.94127-2.6493,1.51143-.7842.53147-1.5102,1.13883-2.207,1.77883-.6749.61768-1.2922,1.2916-1.8565,2.01085-.464.59626-.8512,1.24558-1.2354,1.89449-.2948.50055-.5869,1.00241-.8538,1.51852l-.3648.70273c-.037.0795-.092.13914-.1486.20585-.158.2231-1.2097-.52213-1.0517-.74523 0-.0258 0-.0556.01-.0775l.3632-.70261c.2787-.53826.5824-1.06241.8909-1.58408 .4134-.70092.8353-1.39871 1.3362-2.04177 .6112-.77415 1.2746-1.50367 2.0036-2.16952 .7466-.68453 1.5231-1.33588 2.365-1.90169 .9124-.61341 1.8562-1.18015 2.8632-1.62653 1.1773-.51371 2.3842-.9508 3.594-1.38132 .2679-.0942.712,1.16849.4441,1.26271z" stroke-linecap="round"/> <path d="m1173.4483,615.13394c-1.3011.71242-2.4986,1.59181-3.6734,2.49247-1.1944.91962-2.3084,1.93475-3.3621,3.01103-.838.88072-1.5929,1.83515-2.3242,2.80487-.4024.52034-.7395,1.09036-1.17,1.58854l-.2006.15416c-.1653.18994-1.0607-.58948-.8953-.77941l.066-.15178c.356-.55312.7596-1.07505 1.1394-1.61169 .7661-1.01526 1.5577-2.01387 2.4364-2.93508 1.0997-1.1194 2.2609-2.17621 3.5093-3.12914 1.2366-.94228 2.4973-1.86162 3.8661-2.60544 .2464-.12912.8551,1.03235.6087,1.16147z" stroke-linecap="round"/> </g> </svg>